<svg id="Layer_3" data-name="Layer 3" xmlns="http://www.w3.org/2000/svg" width="200" height="200" viewBox="0 0 200 200"><path d="M132.35,39.22H67.65A28.46,28.46,0,0,0,39.22,67.65v64.7a28.46,28.46,0,0,0,28.43,28.43h64.7a28.46,28.46,0,0,0,28.43-28.43V67.65A28.46,28.46,0,0,0,132.35,39.22ZM138.1,100A38.1,38.1,0,0,1,100,138.1h0A38.1,38.1,0,0,1,61.9,100h0A38.1,38.1,0,0,1,100,61.9h0A38.1,38.1,0,0,1,138.1,100ZM149,60.06A9,9,0,0,1,140,69h0a9,9,0,0,1-8.94-9h0a8.94,8.94,0,0,1,8.94-9h0a8.94,8.94,0,0,1,8.95,9Z" fill="#fff"/><circle cx="100" cy="100" r="25.46" transform="translate(-41.42 100) rotate(-45)" fill="#fff"/><path d="M157.85,0H42.15A42.15,42.15,0,0,0,0,42.15v115.7A42.15,42.15,0,0,0,42.15,200h115.7A42.15,42.15,0,0,0,200,157.85V42.15A42.15,42.15,0,0,0,157.85,0Zm15.56,132.35a41.06,41.06,0,0,1-41.06,41.06H67.65a41.06,41.06,0,0,1-41.06-41.06V67.65A41.06,41.06,0,0,1,67.65,26.59h64.7a41.06,41.06,0,0,1,41.06,41.06Z" fill="#fff"/></svg>