<svg xmlns="http://www.w3.org/2000/svg" width="70.56mm" height="70.56mm" viewBox="0 0 200 200"><g id="Layer_2" data-name="Layer 2"><g id="Layer_1-2" data-name="Layer 1"><path d="M157.85,0H42.15A42.15,42.15,0,0,0,0,42.15v115.7A42.15,42.15,0,0,0,42.15,200h115.7A42.15,42.15,0,0,0,200,157.85V42.15A42.15,42.15,0,0,0,157.85,0ZM59.61,171.86H31.2c-.79,0-.68.06-.68-.68V76.28c0-.76-.11-.69.67-.69H59.65c.78,0,.67-.06.67.68v94.85C60.32,172,60.45,171.86,59.61,171.86ZM45.28,63A17.76,17.76,0,1,1,62.9,45.2,17.67,17.67,0,0,1,45.28,63ZM171.7,171.86c-.11,0-.23,0-.34,0H143.09c-.77,0-.68.06-.68-.68q0-24.75,0-49.5a37.42,37.42,0,0,0-1.25-10.48,17.34,17.34,0,0,0-3.44-6.72,13.4,13.4,0,0,0-8.93-4.59,21.06,21.06,0,0,0-9.16.81,15.11,15.11,0,0,0-9.12,8,25.35,25.35,0,0,0-2.35,9c-.17,1.83-.18,3.67-.18,5.51v47.94c0,.76.1.69-.66.69H80.07c-.66,0-.66,0-.66-.65v-95c0-.66,0-.66.65-.66h27.29c.63,0,.63,0,.63.63V88.36a46,46,0,0,1,3-3.89,32.9,32.9,0,0,1,20.43-11.38,39,39,0,0,1,21,2.41c7.94,3.28,13.33,9.11,16.53,17a44.23,44.23,0,0,1,2.85,12,71.64,71.64,0,0,1,.33,7.75V171a4.86,4.86,0,0,0,0,.54C172.09,171.76,172,171.88,171.7,171.86Z" fill="#fff"/></g></g></svg>