<svg xmlns="http://www.w3.org/2000/svg" width="67.54mm" height="57.15mm" viewBox="0 0 191.45 162"><g id="Layer_2" data-name="Layer 2"><g id="Layer_13" data-name="Layer 13"><path d="M60,66.9a2.6,2.6,0,0,1,3.8,2.36,15.91,15.91,0,0,0,2.36,7.81c4.67,7.62,14.52,9.94,21.2,4.62,4.89-3.9,6.46-11.09,3.74-17.25a16,16,0,0,0-7-7.68,2.59,2.59,0,0,1-.35-4.43l21.65-13.27a2.5,2.5,0,0,1,3.4,1l14.92,24.34a2.38,2.38,0,0,0,4.31-.17,13.29,13.29,0,0,1,4.24-5.64l-33.87-57a3.14,3.14,0,0,0-5.37,0L50.91,72.46Z" fill="#ffda00"/><path d="M191,157.49,147.6,84.35a13.23,13.23,0,0,1-6.52,1.05,2.39,2.39,0,0,0-2.15,3.77l14.91,24.33a2.49,2.49,0,0,1-.69,3.46l-22.48,13.78a2.6,2.6,0,0,1-3.79-2.46,16,16,0,0,0-2.38-8.44c-4.66-7.6-14.48-9.93-21.16-4.64-5,4-6.54,11.38-3.62,17.61a16.05,16.05,0,0,0,7.34,7.62,2.6,2.6,0,0,1,.46,4.49L85,158.7a2.49,2.49,0,0,1-3.39-1L67.16,134.1a2.41,2.41,0,0,0-4.25,0,13.05,13.05,0,0,1-4.85,5.27c-7.34,4.5-17.5.91-21.13-8.13a14.6,14.6,0,0,1,2.83-15.67,13.2,13.2,0,0,1,9.46-3.9,2.39,2.39,0,0,0,1.88-3.78L40.32,90.3.42,157.49A3,3,0,0,0,3.1,162H188.35A3,3,0,0,0,191,157.49Z" fill="#ffda00"/></g></g></svg>